<?xml version="1.0" encoding="UTF-8" standalone="no"?>
<!-- Generator: Adobe Illustrator 19.0.0, SVG Export Plug-In . SVG Version: 6.00 Build 0)  -->

<svg
   xmlns:dc="http://purl.org/dc/elements/1.1/"
   xmlns:cc="http://creativecommons.org/ns#"
   xmlns:rdf="http://www.w3.org/1999/02/22-rdf-syntax-ns#"
   xmlns:svg="http://www.w3.org/2000/svg"
   xmlns="http://www.w3.org/2000/svg"
   xmlns:sodipodi="http://sodipodi.sourceforge.net/DTD/sodipodi-0.dtd"
   xmlns:inkscape="http://www.inkscape.org/namespaces/inkscape"
   version="1.1"
   id="레이어_1"
   x="0px"
   y="0px"
   viewBox="0 0 329.99999 65"
   xml:space="preserve"
   sodipodi:docname="deepcell-logo-full.1.svg"
   inkscape:version="0.92.2 (5c3e80d, 2017-08-06)"
   width="330"
   height="65"><metadata
     id="metadata434"><rdf:RDF><cc:Work
         rdf:about=""><dc:format>image/svg+xml</dc:format><dc:type
           rdf:resource="http://purl.org/dc/dcmitype/StillImage" /><dc:title></dc:title></cc:Work></rdf:RDF></metadata><defs
     id="defs432" /><sodipodi:namedview
     pagecolor="#ffffff"
     bordercolor="#666666"
     borderopacity="1"
     objecttolerance="10"
     gridtolerance="10"
     guidetolerance="10"
     inkscape:pageopacity="0"
     inkscape:pageshadow="2"
     inkscape:window-width="1920"
     inkscape:window-height="1057"
     id="namedview430"
     showgrid="false"
     inkscape:zoom="1.0490509"
     inkscape:cx="-9.6561822"
     inkscape:cy="297.64999"
     inkscape:window-x="1912"
     inkscape:window-y="-8"
     inkscape:window-maximized="1"
     inkscape:current-layer="레이어_1" /><style
     type="text/css"
     id="style223">
	.st0{fill:#231815;}
	.st1{font-family:'AppleSDGothicNeo-Bold-KSCpc-EUC-H';}
	.st2{font-size:14px;}
	.st3{font-size:9px;}
	.st4{font-family:'AppleSDGothicNeo-Light-KSCpc-EUC-H';}
	.st5{fill:#FFC800;}
	.st6{fill:#3269B4;}
	.st7{fill:#19284D;}
	.st8{fill:#534196;}
	.st9{fill:#4DC3F0;}
	.st10{fill:#4B91CD;}
	.st11{fill:none;stroke:#231815;stroke-width:1.1;stroke-miterlimit:10;}
	.st12{font-size:22px;}
	.st13{letter-spacing:-1;}
	.st14{clip-path:url(#SVGID_2_);}
	.st15{fill:none;stroke:#9E9E9F;stroke-width:0.5;}
	.st16{fill:#FFFFFF;}
	.st17{fill:none;stroke:#FFFFFF;stroke-width:0.899;stroke-miterlimit:10;}
	.st18{clip-path:url(#SVGID_6_);fill:#534196;}
	.st19{clip-path:url(#SVGID_6_);fill:#7D4697;}
	.st20{clip-path:url(#SVGID_6_);fill:#213464;}
</style><path
     class="st7"
     d="m 315.45076,40.267659 c 0,3.6 0.9,6.2 2.6,7.7 1.7,1.6 4,2.4 6.9,2.4 0.7,0 1.5,0 2.3,-0.1 0.8,-0.1 1.6,-0.2 2.1,-0.4 0.1,-0.3 0.1,-0.6 0.1,-0.8 v -0.8 c 0,-1.5 -0.2,-2.9 -0.6,-4.5 -0.3,0.1 -0.7,0.1 -1,0.2 -0.4,0 -0.7,0.1 -1,0.1 -0.7,0 -1.2,-0.1 -1.7,-0.2 -0.4,-0.1 -0.8,-0.4 -1.1,-0.8 -0.3,-0.4 -0.5,-0.9 -0.6,-1.6 -0.1,-0.7 -0.2,-1.6 -0.2,-2.8 v -29.3 c -1.3,-0.2 -2.6,-0.3 -3.9,-0.3 -1.3,0 -2.6,0.1 -4,0.3 v 30.9 z m -15.9,0 c 0,3.6 0.9,6.2 2.6,7.7 1.7,1.6 4,2.4 6.9,2.4 0.7,0 1.5,0 2.3,-0.1 0.8,-0.1 1.6,-0.2 2.1,-0.4 0.1,-0.3 0.1,-0.6 0.1,-0.8 v -0.8 c 0,-1.5 -0.2,-2.9 -0.6,-4.5 -0.3,0.1 -0.7,0.1 -1,0.2 -0.4,0 -0.7,0.1 -1,0.1 -0.7,0 -1.2,-0.1 -1.7,-0.2 -0.4,-0.1 -0.8,-0.4 -1.1,-0.8 -0.3,-0.4 -0.5,-0.9 -0.6,-1.6 -0.1,-0.7 -0.2,-1.6 -0.2,-2.8 v -29.3 c -1.3,-0.2 -2.6,-0.3 -3.9,-0.3 -1.3,0 -2.6,0.1 -4,0.3 v 30.9 z m -23.7,-7.8 c 0.2,-1.9 0.8,-3.4 1.7,-4.4 1,-1 2.4,-1.6 4.2,-1.6 1.6,0 2.9,0.5 3.8,1.6 0.9,1.1 1.4,2.5 1.5,4.3 h -11.2 z m 18.5,5.6 c 0.1,-0.4 0.1,-1 0.2,-1.6 0.1,-0.7 0.1,-1.4 0.1,-2.1 0,-1.9 -0.3,-3.8 -0.8,-5.4 -0.6,-1.7 -1.4,-3.2 -2.5,-4.4 -1.1,-1.2 -2.4,-2.2 -4,-2.9 -1.6,-0.7 -3.3,-1.1 -5.4,-1.1 -2.3,0 -4.3,0.4 -6.1,1.2 -1.7,0.8 -3.2,1.9 -4.4,3.3 -1.2,1.4 -2.1,3 -2.7,4.9 -0.6,1.9 -0.9,3.9 -0.9,6 0,2.2 0.3,4.2 0.9,6 0.6,1.8 1.5,3.4 2.7,4.7 1.2,1.3 2.8,2.4 4.7,3.1 1.9,0.7 4.2,1.1 6.9,1.1 3.6,0 6.9,-0.6 9.8,-1.7 0,-1.2 -0.2,-2.3 -0.5,-3.4 -0.3,-1 -0.7,-1.9 -1.1,-2.7 -1.2,0.4 -2.4,0.8 -3.8,1 -1.3,0.2 -2.6,0.4 -3.9,0.4 -2.3,0 -4.2,-0.5 -5.6,-1.5 -1.4,-1 -2.2,-2.6 -2.3,-4.9 z m -31.7,5.7 c -0.5,0.1 -0.9,0.3 -1.4,0.3 -0.4,0.1 -0.9,0.1 -1.4,0.1 -0.5,0 -1,0 -1.5,0 -2.2,0 -3.9,-0.7 -5.1,-2.1 -1.3,-1.4 -1.9,-3.6 -1.9,-6.6 0,-2.8 0.6,-4.9 1.8,-6.4 1.2,-1.5 2.9,-2.3 5.2,-2.3 1.1,0 2,0.1 2.9,0.2 0.8,0.1 1.8,0.4 2.9,0.8 0.5,-1 0.8,-2 1.1,-3 0.2,-1.1 0.3,-2 0.3,-2.9 -0.8,-0.3 -1.5,-0.5 -2.1,-0.7 -0.6,-0.2 -1.3,-0.3 -1.9,-0.4 -0.6,-0.1 -1.3,-0.2 -2,-0.2 -0.7,0 -1.4,-0.1 -2.3,-0.1 -2.3,0 -4.3,0.4 -6.1,1.2 -1.8,0.8 -3.2,1.9 -4.4,3.2 -1.2,1.4 -2,3 -2.6,4.8 -0.6,1.8 -0.9,3.8 -0.9,5.9 0,2.2 0.3,4.2 0.9,6 0.6,1.8 1.5,3.4 2.7,4.8 1.2,1.3 2.7,2.4 4.4,3.2 1.8,0.8 3.9,1.1 6.3,1.1 1.4,0 2.8,-0.1 4.1,-0.3 1.3,-0.2 2.7,-0.5 4.2,-1.1 0,-1.3 -0.1,-2.5 -0.4,-3.5 -0.3,-1 -0.7,-1.9 -1.1,-2.6 -0.7,0.3 -1.2,0.5 -1.7,0.6 m -41.3,-9.7 c 0,-0.9 0.1,-1.8 0.3,-2.6 0.2,-0.8 0.5,-1.5 0.9,-2.1 0.4,-0.6 0.9,-1.1 1.6,-1.5 0.7,-0.4 1.4,-0.5 2.4,-0.5 1,0 1.9,0.2 2.5,0.6 0.7,0.4 1.3,1 1.7,1.7 0.4,0.7 0.8,1.6 0.9,2.5 0.2,1 0.3,2.1 0.3,3.2 0,3 -0.6,5.3 -1.8,6.8 -1.2,1.5 -3,2.2 -5.3,2.2 -1.3,0 -2.5,-0.1 -3.5,-0.4 z m -7.9,29.2 c 0.7,0.1 1.4,0.2 2,0.2 0.7,0 1.3,0.1 1.9,0.1 0.6,0 1.3,0 1.9,-0.1 0.7,0 1.3,-0.1 2,-0.2 v -12.8 c 0.4,0.1 0.9,0.1 1.5,0.2 0.6,0.1 1.2,0.1 1.9,0.1 2.5,0 4.7,-0.4 6.6,-1.1 1.9,-0.7 3.6,-1.8 4.9,-3.1 1.3,-1.3 2.4,-3 3.1,-4.9 0.7,-1.9 1.1,-4.1 1.1,-6.5 0,-2.5 -0.3,-4.7 -0.9,-6.5 -0.6,-1.8 -1.4,-3.3 -2.4,-4.6 -1,-1.2 -2.3,-2.1 -3.7,-2.7 -1.4,-0.6 -2.9,-0.9 -4.5,-0.9 -1,0 -2,0.1 -2.8,0.4 -0.9,0.3 -1.6,0.6 -2.3,1.1 -0.7,0.4 -1.3,1 -1.8,1.5 -0.5,0.6 -0.9,1.2 -1.2,1.8 0,-0.3 -0.1,-0.6 -0.1,-1 -0.1,-0.4 -0.1,-0.8 -0.2,-1.2 -0.1,-0.4 -0.2,-0.8 -0.3,-1.1 -0.1,-0.4 -0.2,-0.6 -0.3,-0.8 -1.1,-0.2 -2.1,-0.3 -3.2,-0.3 -0.6,0 -1.2,0 -1.7,0.1 -0.5,0 -1,0.1 -1.5,0.2 z m -22.6,-30.8 c 0.2,-1.9 0.8,-3.4 1.7,-4.4 1,-1 2.4,-1.6 4.2,-1.6 1.6,0 2.9,0.5 3.8,1.6 0.9,1.1 1.4,2.5 1.5,4.3 h -11.2 z m 18.5,5.6 c 0.1,-0.4 0.1,-1 0.2,-1.6 0.1,-0.7 0.1,-1.4 0.1,-2.1 0,-1.9 -0.3,-3.8 -0.8,-5.4 -0.6,-1.7 -1.4,-3.2 -2.5,-4.4 -1.1,-1.2 -2.4,-2.2 -4,-2.9 -1.6,-0.7 -3.4,-1.1 -5.4,-1.1 -2.3,0 -4.3,0.4 -6.1,1.2 -1.7,0.8 -3.2,1.9 -4.4,3.3 -1.2,1.4 -2.1,3 -2.7,4.9 -0.6,1.9 -0.9,3.9 -0.9,6 0,2.2 0.3,4.2 0.9,6 0.6,1.8 1.5,3.4 2.7,4.7 1.2,1.3 2.8,2.4 4.7,3.1 1.9,0.7 4.2,1.1 6.9,1.1 3.6,0 6.9,-0.6 9.8,-1.7 0,-1.2 -0.2,-2.3 -0.5,-3.4 -0.3,-1 -0.7,-1.9 -1.1,-2.7 -1.2,0.4 -2.4,0.8 -3.8,1 -1.3,0.2 -2.6,0.4 -3.9,0.4 -2.3,0 -4.2,-0.5 -5.6,-1.5 -1.4,-1 -2.2,-2.6 -2.3,-4.9 z m -48.2,-5.6 c 0.2,-1.9 0.8,-3.4 1.7,-4.4 1,-1 2.4,-1.6 4.2,-1.6 1.6,0 2.9,0.5 3.8,1.6 0.9,1.1 1.4,2.5 1.5,4.3 h -11.2 z m 18.5,5.6 c 0.1,-0.4 0.1,-1 0.2,-1.6 0.1,-0.7 0.1,-1.4 0.1,-2.1 0,-1.9 -0.3,-3.8 -0.8,-5.4 -0.6,-1.7 -1.4,-3.2 -2.5,-4.4 -1.1,-1.2 -2.4,-2.2 -4,-2.9 -1.6,-0.7 -3.3,-1.1 -5.4,-1.1 -2.3,0 -4.3,0.4 -6.1,1.2 -1.7,0.8 -3.2,1.9 -4.4,3.3 -1.2,1.4 -2.1,3 -2.7,4.9 -0.6,1.9 -0.9,3.9 -0.9,6 0,2.2 0.3,4.2 0.9,6 0.6,1.8 1.5,3.4 2.7,4.7 1.2,1.3 2.8,2.4 4.7,3.1 1.9,0.7 4.2,1.1 6.9,1.1 3.6,0 6.9,-0.6 9.8,-1.7 0,-1.2 -0.2,-2.3 -0.5,-3.4 -0.3,-1 -0.7,-1.9 -1.1,-2.7 -1.2,0.4 -2.4,0.8 -3.8,1 -1.4,0.2 -2.6,0.4 -3.9,0.4 -2.3,0 -4.2,-0.5 -5.6,-1.5 -1.4,-1 -2.2,-2.6 -2.3,-4.9 z m -53.4,-21.6 c 0.5,-0.1 1.1,-0.1 1.8,-0.1 0.7,0 1.3,0 1.8,0 1.6,0 3,0.2 4.4,0.6 1.4,0.4 2.6,1.2 3.7,2.2 1.1,1 1.9,2.5 2.6,4.2 0.6,1.8 0.9,4 0.9,6.7 0,2.8 -0.3,5 -0.9,6.8 -0.6,1.8 -1.5,3.1 -2.6,4.2 -1.1,1 -2.4,1.8 -3.8,2.1 -1.5,0.4 -3.1,0.6 -4.8,0.6 -0.7,0 -1.4,0 -1.9,-0.1 -0.5,0 -0.9,-0.1 -1.3,-0.1 v -27.1 z m -8.2,33.6 c 1.6,0.2 3.1,0.3 4.7,0.5 1.6,0.1 3.4,0.2 5.2,0.2 7.3,0 12.9,-1.7 16.6,-5 3.7,-3.3 5.6,-8.5 5.6,-15.5 0,-7 -1.8,-12.2 -5.5,-15.7 -3.7,-3.5 -9,-5.2 -16.1,-5.2 -2.1,0 -4,0.1 -5.7,0.2 -1.7,0.1 -3.4,0.3 -4.9,0.5 v 40 z"
     id="path299"
     inkscape:connector-curvature="0"
     style="fill:#19284d" /><path
     class="st6"
     d="m 107.95076,27.167659 c 0,-13 -10.5,-23.6 -23.6,-23.6 0,0 -0.1,0 -0.1,0 v 0 h -23.4 v 47.1 h 23.5 v 0 c 0,0 0.1,0 0.1,0 13,0.1 23.5,-10.4 23.5,-23.5"
     id="path301"
     inkscape:connector-curvature="0"
     style="fill:#3269b4" /><rect
     x="48.950775"
     y="3.6676579"
     class="st9"
     width="11.8"
     height="11.5"
     id="rect303"
     style="fill:#4dc3f0" /><rect
     x="37.150757"
     y="15.167675"
     class="st9"
     width="11.8"
     height="11.8"
     id="rect305"
     style="fill:#4dc3f0" /><rect
     x="25.250763"
     y="26.867657"
     class="st9"
     width="11.8"
     height="11.8"
     id="rect307"
     style="fill:#4dc3f0" /><rect
     x="37.150757"
     y="38.667675"
     class="st5"
     width="11.8"
     height="11.8"
     id="rect309"
     style="fill:#ffc800" /><rect
     x="25.250763"
     y="3.3676548"
     class="st5"
     width="11.8"
     height="11.8"
     id="rect311"
     style="fill:#ffc800" /><rect
     x="1.6507568"
     y="15.167675"
     class="st5"
     width="11.8"
     height="11.8"
     id="rect313"
     style="fill:#ffc800" /><rect
     x="60.850761"
     y="15.167675"
     class="st9"
     width="11.8"
     height="11.8"
     id="rect315"
     style="fill:#4dc3f0" /><rect
     x="60.850761"
     y="26.967663"
     class="st10"
     width="11.8"
     height="11.8"
     id="rect317"
     style="fill:#4b91cd" /><rect
     x="48.950775"
     y="26.867657"
     class="st6"
     width="11.8"
     height="11.8"
     id="rect319"
     style="fill:#3269b4" /><rect
     x="48.950775"
     y="15.167675"
     class="st10"
     width="11.8"
     height="11.8"
     id="rect321"
     style="fill:#4b91cd" /></svg>